<?xml version="1.0" standalone="no"?><!DOCTYPE svg PUBLIC "-//W3C//DTD SVG 1.1//EN" "http://www.w3.org/Graphics/SVG/1.1/DTD/svg11.dtd"><svg t="1747198087997" class="icon" viewBox="0 0 1024 1024" version="1.1" xmlns="http://www.w3.org/2000/svg" p-id="18062" xmlns:xlink="http://www.w3.org/1999/xlink" width="200" height="200"><path d="M512 0a512 512 0 1 0 0 1024A512 512 0 0 0 512 0z m0 320c17.635556 0 32.028444 14.336 32.028444 32.028444v128h128a31.971556 31.971556 0 1 1 0 63.943112h-128v128a31.971556 31.971556 0 1 1-64.056888 0v-128h-128a32.028444 32.028444 0 0 1 0-63.943112h128v-128c0-17.692444 14.336-32.028444 32.028444-32.028444z" fill="#5687FF" p-id="18063"></path></svg>