<?xml version="1.0" standalone="no"?><!DOCTYPE svg PUBLIC "-//W3C//DTD SVG 1.1//EN" "http://www.w3.org/Graphics/SVG/1.1/DTD/svg11.dtd"><svg t="1747198109726" class="icon" viewBox="0 0 1024 1024" version="1.1" xmlns="http://www.w3.org/2000/svg" p-id="19045" xmlns:xlink="http://www.w3.org/1999/xlink" width="200" height="200"><path d="M0.4335 1.257151h1021.478473v1021.492923H0.4335z" fill="#769AFF" p-id="19046"></path><path d="M0.4335 1.257151l1021.471248 1021.485698M0.4335 1022.742849L1021.904748 1.257151" fill="#769AFF" p-id="19047"></path><path d="M563.499838 567.516941c118.887462-24.528893 208.542553-130.021195 208.542552-256.075863 0-144.160531-117.283511-261.451266-261.458491-261.451266-144.174981 0-261.458491 117.290736-261.458492 261.451266 0 126.054667 89.647866 231.539745 208.542553 256.075863-179.671432 25.757144-318.247033 180.632357-318.247033 367.326494a38.097453 38.097453 0 0 0 38.097453 38.097453h666.109363a38.097453 38.097453 0 0 0 38.097453-38.097453c0.01445-186.701362-138.561151-341.56935-318.225358-367.326494z" fill="#FFFFFF" p-id="19048"></path></svg>