<?xml version="1.0" standalone="no"?><!DOCTYPE svg PUBLIC "-//W3C//DTD SVG 1.1//EN" "http://www.w3.org/Graphics/SVG/1.1/DTD/svg11.dtd"><svg t="1748412820625" class="icon" viewBox="0 0 1024 1024" version="1.1" xmlns="http://www.w3.org/2000/svg" p-id="5078" xmlns:xlink="http://www.w3.org/1999/xlink" width="200" height="200"><path d="M512 938.666667C276.48 938.666667 85.333333 747.52 85.333333 512S276.48 85.333333 512 85.333333s426.666667 191.146667 426.666667 426.666667-191.146667 426.666667-426.666667 426.666667z m0-785.066667C314.026667 153.6 153.6 314.026667 153.6 512s160.426667 358.4 358.4 358.4 358.4-160.426667 358.4-358.4S709.973333 153.6 512 153.6z" fill="#3793DF" p-id="5079"></path><path d="M307.2 750.933333c-8.533333 0-17.066667-3.413333-23.893333-10.24-10.24-10.24-11.946667-23.893333-8.533334-35.84l107.52-276.48c3.413333-8.533333 10.24-15.36 18.773334-18.773333l278.186666-109.226667c11.946667-5.12 27.306667-1.706667 35.84 6.826667 10.24 10.24 11.946667 23.893333 6.826667 35.84l-109.226667 278.186667c-3.413333 8.533333-10.24 15.36-18.773333 18.773333l-276.48 107.52c-1.706667 3.413333-6.826667 3.413333-10.24 3.413333z m133.12-285.013333l-73.386667 189.44 189.44-73.386667L631.466667 390.826667l-191.146667 75.093333z" fill="#EB4AF4" p-id="5080"></path><path d="M500.053333 575.146667c-29.013333 0-51.2-22.186667-51.2-51.2s22.186667-51.2 51.2-51.2 51.2 22.186667 51.2 51.2-22.186667 51.2-51.2 51.2z m0-68.266667c-10.24 0-17.066667 6.826667-17.066666 17.066667s6.826667 17.066667 17.066666 17.066666 17.066667-6.826667 17.066667-17.066666-6.826667-17.066667-17.066667-17.066667z" fill="#3793DF" p-id="5081"></path></svg>