<?xml version="1.0" standalone="no"?><!DOCTYPE svg PUBLIC "-//W3C//DTD SVG 1.1//EN" "http://www.w3.org/Graphics/SVG/1.1/DTD/svg11.dtd"><svg t="1747061143140" class="icon" viewBox="0 0 1024 1024" version="1.1" xmlns="http://www.w3.org/2000/svg" p-id="19561" xmlns:xlink="http://www.w3.org/1999/xlink" width="200" height="200"><path d="M512 0a512 512 0 1 0 512 512A512 512 0 0 0 512 0zM455.214545 427.287273h113.57091a12.567273 12.567273 0 0 1 8.843636 21.410909 93.090909 93.090909 0 0 1-131.258182 0 12.567273 12.567273 0 0 1 8.843636-21.410909z m272.756364 369.570909H296.029091a46.545455 46.545455 0 0 1-34.443636-82.850909 348.625455 348.625455 0 0 1 500.82909 0 46.545455 46.545455 0 0 1-34.443636 82.850909z" fill="#F55E55" p-id="19562"></path><path d="M512 210.850909A162.909091 162.909091 0 1 0 674.909091 372.363636 162.909091 162.909091 0 0 0 512 210.850909z m65.629091 237.847273a93.090909 93.090909 0 0 1-131.258182 0 12.567273 12.567273 0 0 1 8.843636-21.410909h113.57091a12.567273 12.567273 0 0 1 8.843636 21.410909z" fill="#F9BBB8" p-id="19563"></path></svg>